<!DOCTYPE svg [<!ENTITY nbsp "&#160;">]><svg width="100%" height="780pt" viewBox="0.00 0.00 784.17 780.20" xmlns="http://www.w3.org/2000/svg" xmlns:xlink="http://www.w3.org/1999/xlink">
<g id="graph0" class="graph" transform="scale(1 1) rotate(0) translate(4 776.2)">
<title>state transitions</title>
<polygon fill="white" stroke="none" points="-4,4 -4,-776.2 780.17,-776.2 780.17,4 -4,4"></polygon>
<g id="clust1" class="cluster state regular">
<title>cluster_Registered</title>
<path fill="none" stroke="black" stroke-width="2" d="M177.31,-110.8C177.31,-110.8 373.31,-110.8 373.31,-110.8 379.31,-110.8 385.31,-116.8 385.31,-122.8 385.31,-122.8 385.31,-554.8 385.31,-554.8 385.31,-560.8 379.31,-566.8 373.31,-566.8 373.31,-566.8 177.31,-566.8 177.31,-566.8 171.31,-566.8 165.31,-560.8 165.31,-554.8 165.31,-554.8 165.31,-122.8 165.31,-122.8 165.31,-116.8 171.31,-110.8 177.31,-110.8"></path>
<text text-anchor="start" x="246.29" y="-548" font-family="Helvetica,sans-Serif" font-size="12.00">Registered</text>
<text text-anchor="start" x="209.95" y="-527.6" font-family="Helvetica,sans-Serif" font-size="12.00">entry/ Set:</text>
<text text-anchor="start" x="209.95" y="-507.2" font-family="Helvetica,sans-Serif" font-size="12.00">- UseExpiresOn</text>
<text text-anchor="start" x="209.95" y="-486.8" font-family="Helvetica,sans-Serif" font-size="12.00">- GracePeriodExpiresOn</text>
<text text-anchor="start" x="209.95" y="-466.4" font-family="Helvetica,sans-Serif" font-size="12.00">- TerminatesOn</text>
<polygon fill="black" stroke="black" points="205.95,-541.4 205.95,-541.4 344.67,-541.4 344.67,-541.4 205.95,-541.4"></polygon>
</g>
<!-- initial -->
<g id="node1" class="node state initial">
<title>initial</title>
<ellipse fill="black" stroke="black" stroke-width="2" cx="194.31" cy="-766.8" rx="5.4" ry="5.4"></ellipse>
</g>
<!-- Initialize -->
<g id="node2" class="node state regular">
<title>Initialize</title>
<polygon fill="#ffffff" fill-opacity="0.003922" stroke="none" stroke-width="2" points="479.69,-733.4 274.94,-733.4 274.94,-686.6 479.69,-686.6 479.69,-733.4"></polygon>
<text text-anchor="start" x="355.63" y="-716.6" font-family="Helvetica,sans-Serif" font-size="12.00">Initialize</text>
<text text-anchor="start" x="280.94" y="-696.2" font-family="Helvetica,sans-Serif" font-size="12.00">entry/ User becomes AccountHolder</text>
<polygon fill="black" stroke="black" points="274.94,-710 274.94,-710 479.69,-710 479.69,-710 274.94,-710"></polygon>
<path fill="none" stroke="black" stroke-width="2" d="M287.94,-687.6C287.94,-687.6 466.69,-687.6 466.69,-687.6 472.69,-687.6 478.69,-693.6 478.69,-699.6 478.69,-699.6 478.69,-720.4 478.69,-720.4 478.69,-726.4 472.69,-732.4 466.69,-732.4 466.69,-732.4 287.94,-732.4 287.94,-732.4 281.94,-732.4 275.94,-726.4 275.94,-720.4 275.94,-720.4 275.94,-699.6 275.94,-699.6 275.94,-693.6 281.94,-687.6 287.94,-687.6"></path>
</g>
<!-- initial&#45;&gt;Initialize -->
<g id="edge2" class="edge transition">
<title>initial-&gt;Initialize</title>
<path fill="none" stroke="black" d="M199.99,-764.1C214.38,-759.79 253.86,-747.97 291.92,-736.57"></path>
<polygon fill="black" stroke="black" points="292.57,-740.03 301.15,-733.81 290.56,-733.32 292.57,-740.03"></polygon>
<text text-anchor="middle" x="275.7" y="-744.4" font-family="Helvetica,sans-Serif" font-size="10.00"> </text>
</g>
<!-- note_initial -->
<g id="node9" class="node">
<title>note_initial</title>
<polygon fill="#ffffcc" stroke="black" points="247.06,-728 97.56,-728 97.56,-692 253.06,-692 253.06,-722 247.06,-728"></polygon>
<polyline fill="none" stroke="black" points="247.06,-728 247.06,-722"></polyline>
<polyline fill="none" stroke="black" points="253.06,-722 247.06,-722"></polyline>
<text text-anchor="start" x="105.56" y="-707" font-family="Helvetica,sans-Serif" font-size="10.00">https://state-machine-cat.js.org/</text>
</g>
<!-- initial&#45;&gt;note_initial -->
<g id="edge1" class="edge">
<title>initial-&gt;note_initial</title>
<path fill="none" stroke="black" stroke-dasharray="5,2" d="M192.56,-760.74C190.02,-753.43 185.21,-739.55 181.31,-728.3"></path>
</g>
<!-- CanRegister -->
<g id="node3" class="node state regular">
<title>CanRegister</title>
<polygon fill="#ffffff" fill-opacity="0.003922" stroke="none" stroke-width="2" points="485.19,-658.6 269.43,-658.6 269.43,-611.8 485.19,-611.8 485.19,-658.6"></polygon>
<text text-anchor="start" x="343.96" y="-641.8" font-family="Helvetica,sans-Serif" font-size="12.00">CanRegister</text>
<text text-anchor="start" x="275.43" y="-621.4" font-family="Helvetica,sans-Serif" font-size="12.00">entry/ Registered = rabbit:SelfRegister</text>
<polygon fill="black" stroke="black" points="269.43,-635.2 269.43,-635.2 485.19,-635.2 485.19,-635.2 269.43,-635.2"></polygon>
<path fill="none" stroke="black" stroke-width="2" d="M282.43,-612.8C282.43,-612.8 472.19,-612.8 472.19,-612.8 478.19,-612.8 484.19,-618.8 484.19,-624.8 484.19,-624.8 484.19,-645.6 484.19,-645.6 484.19,-651.6 478.19,-657.6 472.19,-657.6 472.19,-657.6 282.43,-657.6 282.43,-657.6 276.43,-657.6 270.43,-651.6 270.43,-645.6 270.43,-645.6 270.43,-624.8 270.43,-624.8 270.43,-618.8 276.43,-612.8 282.43,-612.8"></path>
</g>
<!-- Initialize&#45;&gt;CanRegister -->
<g id="edge3" class="edge transition">
<title>Initialize-&gt;CanRegister</title>
<path fill="none" stroke="black" d="M377.31,-686.76C377.31,-681.45 377.31,-675.66 377.31,-669.96"></path>
<polygon fill="black" stroke="black" points="380.81,-670.07 377.31,-660.07 373.81,-670.07 380.81,-670.07"></polygon>
<text text-anchor="start" x="377.31" y="-669.6" font-family="Helvetica,sans-Serif" font-size="10.00">User fills Administrator [exists AccountHolder &amp;&amp; exists Administrator] &nbsp;&nbsp;</text>
</g>
<!-- i_note_tr_CanRegister_Registered_3 -->
<!-- CanRegister&#45;&gt;i_note_tr_CanRegister_Registered_3 -->
<g id="edge4" class="edge">
<title>CanRegister-&gt;i_note_tr_CanRegister_Registered_3</title>
<path fill="none" stroke="black" d="M377.31,-611.86C377.31,-603.94 377.31,-596.76 377.31,-595.89"></path>
</g>
<!-- Terminated -->
<g id="node4" class="node state regular">
<title>Terminated</title>
<polygon fill="#ffffff" fill-opacity="0.003922" stroke="none" stroke-width="2" points="567.01,-226.8 409.61,-226.8 409.61,-78 567.01,-78 567.01,-226.8"></polygon>
<text text-anchor="start" x="457.96" y="-210" font-family="Helvetica,sans-Serif" font-size="12.00">Terminated</text>
<text text-anchor="start" x="415.61" y="-189.6" font-family="Helvetica,sans-Serif" font-size="12.00">entry/ DeleteAMQPaccount</text>
<text text-anchor="start" x="415.61" y="-169.2" font-family="Helvetica,sans-Serif" font-size="12.00">DeleteQueue</text>
<text text-anchor="start" x="415.61" y="-148.8" font-family="Helvetica,sans-Serif" font-size="12.00">deleteAMQPaccount</text>
<text text-anchor="start" x="415.61" y="-128.4" font-family="Helvetica,sans-Serif" font-size="12.00">Registered = false</text>
<text text-anchor="start" x="415.61" y="-108" font-family="Helvetica,sans-Serif" font-size="12.00">exit/ prepareAMQPaccount</text>
<text text-anchor="start" x="415.61" y="-87.6" font-family="Helvetica,sans-Serif" font-size="12.00">Registered = true</text>
<polygon fill="black" stroke="black" points="409.61,-203.4 409.61,-203.4 567.01,-203.4 567.01,-203.4 409.61,-203.4"></polygon>
<path fill="none" stroke="black" stroke-width="2" d="M422.61,-79C422.61,-79 554.01,-79 554.01,-79 560.01,-79 566.01,-85 566.01,-91 566.01,-91 566.01,-213.8 566.01,-213.8 566.01,-219.8 560.01,-225.8 554.01,-225.8 554.01,-225.8 422.61,-225.8 422.61,-225.8 416.61,-225.8 410.61,-219.8 410.61,-213.8 410.61,-213.8 410.61,-91 410.61,-91 410.61,-85 416.61,-79 422.61,-79"></path>
</g>
<!-- Registered -->
<!-- Terminated&#45;&gt;Registered -->
<g id="edge7" class="edge transition">
<title>Terminated-&gt;Registered</title>
<path fill="none" stroke="black" d="M492.14,-226.71C495.18,-299.82 497.07,-403.18 484.31,-416.8 471.68,-430.29 422.61,-417.63 396.02,-423.19"></path>
<polygon fill="black" stroke="black" points="394.76,-419.93 386.72,-426.83 397.31,-426.45 394.76,-419.93"></polygon>
<text text-anchor="start" x="494.31" y="-333" font-family="Helvetica,sans-Serif" font-size="10.00">RestoreAccount[Registered] &nbsp;&nbsp;</text>
</g>
<!-- ExpiresSoon -->
<g id="node6" class="node state regular">
<title>ExpiresSoon</title>
<polygon fill="#ffffff" fill-opacity="0.003922" stroke="none" stroke-width="2" points="331.34,-396.8 173.28,-396.8 173.28,-350 331.34,-350 331.34,-396.8"></polygon>
<text text-anchor="start" x="218.29" y="-380" font-family="Helvetica,sans-Serif" font-size="12.00">ExpiresSoon</text>
<text text-anchor="start" x="179.28" y="-359.6" font-family="Helvetica,sans-Serif" font-size="12.00">entry/ Notify AccountHolder</text>
<polygon fill="black" stroke="black" points="173.28,-373.4 173.28,-373.4 331.34,-373.4 331.34,-373.4 173.28,-373.4"></polygon>
<path fill="none" stroke="black" stroke-width="2" d="M186.28,-351C186.28,-351 318.34,-351 318.34,-351 324.34,-351 330.34,-357 330.34,-363 330.34,-363 330.34,-383.8 330.34,-383.8 330.34,-389.8 324.34,-395.8 318.34,-395.8 318.34,-395.8 186.28,-395.8 186.28,-395.8 180.28,-395.8 174.28,-389.8 174.28,-383.8 174.28,-383.8 174.28,-363 174.28,-363 174.28,-357 180.28,-351 186.28,-351"></path>
</g>
<!-- Registered&#45;&gt;ExpiresSoon -->
<g id="edge8" class="edge transition">
<title>Registered-&gt;ExpiresSoon</title>
<path fill="none" stroke="black" d="M377.22,-445.75C375.08,-444.53 335.44,-421.89 301.39,-402.43"></path>
<polygon fill="black" stroke="black" points="303.24,-399.46 292.82,-397.54 299.77,-405.54 303.24,-399.46"></polygon>
<text text-anchor="start" x="325.31" y="-407.8" font-family="Helvetica,sans-Serif" font-size="10.00">[CurrentDate &gt; UseExpiresSoon] &nbsp;&nbsp;</text>
</g>
<!-- Suspended -->
<g id="node7" class="node state regular">
<title>Suspended</title>
<polygon fill="#ffffff" fill-opacity="0.003922" stroke="none" stroke-width="2" points="377.02,-322 173.6,-322 173.6,-254.8 377.02,-254.8 377.02,-322"></polygon>
<text text-anchor="start" x="244.95" y="-305.2" font-family="Helvetica,sans-Serif" font-size="12.00">Suspended</text>
<text text-anchor="start" x="179.6" y="-284.8" font-family="Helvetica,sans-Serif" font-size="12.00">entry/ Notify AccountHolder</text>
<text text-anchor="start" x="179.6" y="-264.4" font-family="Helvetica,sans-Serif" font-size="12.00">PreventAMQPaccountFromReading</text>
<polygon fill="black" stroke="black" points="173.6,-298.6 173.6,-298.6 377.02,-298.6 377.02,-298.6 173.6,-298.6"></polygon>
<path fill="none" stroke="black" stroke-width="2" d="M186.6,-255.8C186.6,-255.8 364.02,-255.8 364.02,-255.8 370.02,-255.8 376.02,-261.8 376.02,-267.8 376.02,-267.8 376.02,-309 376.02,-309 376.02,-315 370.02,-321 364.02,-321 364.02,-321 186.6,-321 186.6,-321 180.6,-321 174.6,-315 174.6,-309 174.6,-309 174.6,-267.8 174.6,-267.8 174.6,-261.8 180.6,-255.8 186.6,-255.8"></path>
</g>
<!-- ExpiresSoon&#45;&gt;Suspended -->
<g id="edge9" class="edge transition">
<title>ExpiresSoon-&gt;Suspended</title>
<path fill="none" stroke="black" d="M258.47,-350.16C259.99,-344.7 261.66,-338.66 263.34,-332.58"></path>
<polygon fill="black" stroke="black" points="266.66,-333.72 265.96,-323.15 259.91,-331.85 266.66,-333.72"></polygon>
<text text-anchor="start" x="263.31" y="-333" font-family="Helvetica,sans-Serif" font-size="10.00">[CurrentDate &gt; GracePeriodEndsOn] &nbsp;&nbsp;</text>
</g>
<!-- i_note_tr_ExpiresSoon_ExtensionPending_8 -->
<!-- ExpiresSoon&#45;&gt;i_note_tr_ExpiresSoon_ExtensionPending_8 -->
<g id="edge11" class="edge">
<title>ExpiresSoon-&gt;i_note_tr_ExpiresSoon_ExtensionPending_8</title>
<path fill="none" stroke="black" d="M207.75,-350.25C192.34,-342 175.2,-332.16 160.31,-322 142.23,-309.67 122.58,-290.63 121.37,-289.46"></path>
</g>
<!-- Suspended&#45;&gt;Terminated -->
<g id="edge10" class="edge transition">
<title>Suspended-&gt;Terminated</title>
<path fill="none" stroke="black" d="M310.54,-254.89C320.48,-247.23 331.73,-239.83 343.2,-234.8 362.65,-226.26 370.79,-235.18 390.31,-226.8 393.48,-225.44 396.64,-223.96 399.78,-222.37"></path>
<polygon fill="black" stroke="black" points="401.27,-225.55 408.4,-217.71 397.94,-219.39 401.27,-225.55"></polygon>
<text text-anchor="start" x="342.31" y="-237.8" font-family="Helvetica,sans-Serif" font-size="10.00">[CurrentDate &gt; TerminatesOn] &nbsp;&nbsp;</text>
</g>
<!-- ExtensionPending -->
<g id="node8" class="node state regular">
<title>ExtensionPending</title>
<polygon fill="#ffffff" fill-opacity="0.003922" stroke="none" stroke-width="2" points="353.53,-186 173.09,-186 173.09,-118.8 353.53,-118.8 353.53,-186"></polygon>
<text text-anchor="start" x="214.94" y="-169.2" font-family="Helvetica,sans-Serif" font-size="12.00">ExtensionPending</text>
<text text-anchor="start" x="179.09" y="-148.8" font-family="Helvetica,sans-Serif" font-size="12.00">exit/ ExtensionRequested=false</text>
<text text-anchor="start" x="179.09" y="-128.4" font-family="Helvetica,sans-Serif" font-size="12.00">SetPermissions</text>
<polygon fill="black" stroke="black" points="173.09,-162.6 173.09,-162.6 353.53,-162.6 353.53,-162.6 173.09,-162.6"></polygon>
<path fill="none" stroke="black" stroke-width="2" d="M186.09,-119.8C186.09,-119.8 340.53,-119.8 340.53,-119.8 346.53,-119.8 352.53,-125.8 352.53,-131.8 352.53,-131.8 352.53,-173 352.53,-173 352.53,-179 346.53,-185 340.53,-185 340.53,-185 186.09,-185 186.09,-185 180.09,-185 174.09,-179 174.09,-173 174.09,-173 174.09,-131.8 174.09,-131.8 174.09,-125.8 180.09,-119.8 186.09,-119.8"></path>
</g>
<!-- Suspended&#45;&gt;ExtensionPending -->
<g id="edge14" class="edge transition">
<title>Suspended-&gt;ExtensionPending</title>
<path fill="none" stroke="black" d="M215.83,-255C213.67,-252.45 211.75,-249.71 210.13,-246.8 200.58,-229.59 207.92,-210.71 219.86,-194.46"></path>
<polygon fill="black" stroke="black" points="222.4,-196.89 225.94,-186.9 216.95,-192.5 222.4,-196.89"></polygon>
<text text-anchor="start" x="209.31" y="-237.8" font-family="Helvetica,sans-Serif" font-size="10.00">[ExtensionRequested] &nbsp;&nbsp;</text>
</g>
<!-- i_note_tr_ExtensionPending_Registered_10 -->
<!-- ExtensionPending&#45;&gt;i_note_tr_ExtensionPending_Registered_10 -->
<g id="edge15" class="edge">
<title>ExtensionPending-&gt;i_note_tr_ExtensionPending_Registered_10</title>
<path fill="none" stroke="black" d="M316.09,-118.91C340.46,-104.91 370.18,-89.21 398.31,-78 423.15,-68.1 456.17,-62.37 458.21,-62.02"></path>
</g>
<!-- i_note_tr_CanRegister_Registered_3&#45;&gt;Registered -->
<g id="edge5" class="edge">
<title>i_note_tr_CanRegister_Registered_3-&gt;Registered</title>
<path fill="none" stroke="black" d="M377.31,-593.69C377.31,-592.85 377.31,-586.99 377.31,-578.07"></path>
<polygon fill="black" stroke="black" points="380.81,-578.31 377.31,-568.31 373.81,-578.31 380.81,-578.31"></polygon>
<text text-anchor="start" x="377.31" y="-577.8" font-family="Helvetica,sans-Serif" font-size="10.00">[Registered] &nbsp;&nbsp;</text>
</g>
<!-- note_tr_CanRegister_Registered_3 -->
<g id="node11" class="node">
<title>note_tr_CanRegister_Registered_3</title>
<polygon fill="#ffffcc" stroke="black" points="566.96,-468.8 399.66,-468.8 399.66,-424.8 572.96,-424.8 572.96,-462.8 566.96,-468.8"></polygon>
<polyline fill="none" stroke="black" points="566.96,-468.8 566.96,-462.8"></polyline>
<polyline fill="none" stroke="black" points="572.96,-462.8 566.96,-462.8"></polyline>
<text text-anchor="start" x="407.66" y="-455.8" font-family="Helvetica,sans-Serif" font-size="10.00">This is an automatic transition</text>
<text text-anchor="start" x="407.66" y="-443.8" font-family="Helvetica,sans-Serif" font-size="10.00">as Registered is computed on entry</text>
<text text-anchor="start" x="407.66" y="-431.8" font-family="Helvetica,sans-Serif" font-size="10.00">of CanRegister.</text>
</g>
<!-- i_note_tr_CanRegister_Registered_3&#45;&gt;note_tr_CanRegister_Registered_3 -->
<g id="edge6" class="edge">
<title>i_note_tr_CanRegister_Registered_3-&gt;note_tr_CanRegister_Registered_3</title>
<path fill="none" stroke="black" stroke-dasharray="5,2" d="M377.47,-593.81C380.73,-593.95 433.13,-596.04 444.31,-586.8 479.48,-557.73 485.91,-500.28 486.66,-469.12"></path>
</g>
<!-- i_note_tr_ExpiresSoon_ExtensionPending_8&#45;&gt;ExtensionPending -->
<g id="edge12" class="edge">
<title>i_note_tr_ExpiresSoon_ExtensionPending_8-&gt;ExtensionPending</title>
<path fill="none" stroke="black" d="M121.19,-287.31C118.73,-285.41 79.55,-254.73 95.13,-234.8 104.21,-223.19 113.57,-232.12 127.31,-226.8 152.16,-217.18 178.19,-203.98 200.75,-191.42"></path>
<polygon fill="black" stroke="black" points="202.22,-194.62 209.21,-186.65 198.78,-188.52 202.22,-194.62"></polygon>
<text text-anchor="start" x="95.31" y="-237.8" font-family="Helvetica,sans-Serif" font-size="10.00">[ExtensionRequested] &nbsp;&nbsp;</text>
</g>
<!-- note_tr_ExpiresSoon_ExtensionPending_8 -->
<g id="node13" class="node">
<title>note_tr_ExpiresSoon_ExtensionPending_8</title>
<polygon fill="#ffffcc" stroke="black" points="110.62,-170.4 0,-170.4 0,-134.4 116.62,-134.4 116.62,-164.4 110.62,-170.4"></polygon>
<polyline fill="none" stroke="black" points="110.62,-170.4 110.62,-164.4"></polyline>
<polyline fill="none" stroke="black" points="116.62,-164.4 110.62,-164.4"></polyline>
<text text-anchor="start" x="8" y="-155.4" font-family="Helvetica,sans-Serif" font-size="10.00">The AccountHolder</text>
<text text-anchor="start" x="8" y="-143.4" font-family="Helvetica,sans-Serif" font-size="10.00">requests an extension.</text>
</g>
<!-- i_note_tr_ExpiresSoon_ExtensionPending_8&#45;&gt;note_tr_ExpiresSoon_ExtensionPending_8 -->
<g id="edge13" class="edge">
<title>i_note_tr_ExpiresSoon_ExtensionPending_8-&gt;note_tr_ExpiresSoon_ExtensionPending_8</title>
<path fill="none" stroke="black" stroke-dasharray="5,2" d="M121.17,-287.37C118.22,-286.74 70.86,-276.19 54.31,-246.8 41.01,-223.18 46.76,-190.63 52.37,-170.85"></path>
</g>
<!-- i_note_tr_ExtensionPending_Registered_10&#45;&gt;Registered -->
<g id="edge16" class="edge">
<title>i_note_tr_ExtensionPending_Registered_10-&gt;Registered</title>
<path fill="none" stroke="black" d="M458.45,-62C464.36,-61.84 653.31,-57.55 653.31,-151.4 653.31,-374.4 653.31,-374.4 653.31,-374.4 653.31,-443.68 571.56,-404.91 503.31,-416.8 481.03,-420.68 425.17,-413.02 395.57,-422.58"></path>
<polygon fill="black" stroke="black" points="394.26,-419.32 386.68,-426.72 397.22,-425.67 394.26,-419.32"></polygon>
<text text-anchor="start" x="653.31" y="-285.4" font-family="Helvetica,sans-Serif" font-size="10.00">[not ExtensionRequested] &nbsp;&nbsp;</text>
</g>
<!-- note_tr_ExtensionPending_Registered_10 -->
<g id="node15" class="node">
<title>note_tr_ExtensionPending_Registered_10</title>
<polygon fill="#ffffcc" stroke="black" points="545.91,-44 364.71,-44 364.71,0 551.91,0 551.91,-38 545.91,-44"></polygon>
<polyline fill="none" stroke="black" points="545.91,-44 545.91,-38"></polyline>
<polyline fill="none" stroke="black" points="551.91,-38 545.91,-38"></polyline>
<text text-anchor="start" x="372.71" y="-31" font-family="Helvetica,sans-Serif" font-size="10.00">The Administrator sets</text>
<text text-anchor="start" x="372.71" y="-19" font-family="Helvetica,sans-Serif" font-size="10.00">the value of ExtensionRequested</text>
<text text-anchor="start" x="372.71" y="-7" font-family="Helvetica,sans-Serif" font-size="10.00">to false in order to restore the account.</text>
</g>
<!-- i_note_tr_ExtensionPending_Registered_10&#45;&gt;note_tr_ExtensionPending_Registered_10 -->
<g id="edge17" class="edge">
<title>i_note_tr_ExtensionPending_Registered_10-&gt;note_tr_ExtensionPending_Registered_10</title>
<path fill="none" stroke="black" stroke-dasharray="5,2" d="M458.31,-59.89C458.31,-58.96 458.31,-52.02 458.31,-44.4"></path>
</g>
</g>
</svg>